# xmcd
#
# Track frame offsets: 
#        150
#        17662
#        32099
#        49236
#        66973
#        84560
#        100122
#        117259
#        130421
#        145758
#        160120
#        182132
#        197994
#        213406
#        228743
#        238530
#        254692
#        274304
#
# Disc length: 3855 seconds
#
# Revision: 2
# Processed by: cddbd v1.5.2PL0 Copyright (c) Steve Scherf et al.
# Submitted via: ExactAudioCopy v0.99pb4
#
DISCID=0d0f0d12
DTITLE=Various Artist - 200911 PO Country Radio
DYEAR=2009
DGENRE=Country
TTITLE0=Bomshel - 19 And Crazy @
TTITLE1=Josh Turner - Why Don't We Just Dance
TTITLE2=Gloriana - How Far Do Ya Wanna Go (Album Version) @
TTITLE3=Jason Aldean - The Truth
TTITLE4=New Relics - Beautiful
TTITLE5=Darius Rucker - History In The Making
TTITLE6=Tim McGraw - Southern Voice
TTITLE7=Julia Burton - Party Down
TTITLE8=Phil Vassar - Everywhere I Go
TTITLE9=Anna Garrott - What A Way To Go
TTITLE10=Taylor Swift - Fifteen (Album Verison)
TTITLE11=Lee Greenwood - Why Lie (Single Edit)
TTITLE12=Williams Riley - Country Livin'
TTITLE13=Kellie Pickler - Didn't You Know How Much I Loved You @
TTITLE14=Boggy Creek - You Stopped My Heart (Album Version)
TTITLE15=John Anderson - Bigger Hands (Single Edit) @
TTITLE16=Jason Crabb - Somebody Like Me
TTITLE17=Houston County - I Can't Make It Rain
EXTD=
EXTT0=
EXTT1=
EXTT2=
EXTT3=
EXTT4=
EXTT5=
EXTT6=
EXTT7=
EXTT8=
EXTT9=
EXTT10=
EXTT11=
EXTT12=
EXTT13=
EXTT14=
EXTT15=
EXTT16=
EXTT17=
PLAYORDER=
